<?xml version="1.0" standalone="no"?>
<!DOCTYPE svg PUBLIC "-//W3C//DTD SVG 20010904//EN"
 "http://www.w3.org/TR/2001/REC-SVG-20010904/DTD/svg10.dtd">
<svg version="1.0" xmlns="http://www.w3.org/2000/svg"
 width="1080.000000pt" height="1080.000000pt" viewBox="0 0 1080.000000 1080.000000"
 preserveAspectRatio="xMidYMid meet">
<metadata>
Created by potrace 1.14, written by Peter Selinger 2001-2017
</metadata>
<g transform="translate(0.000000,1080.000000) scale(0.100000,-0.100000)"
fill="#000000" stroke="none">
<path d="M5367 9924 c-19 -33 -48 -82 -64 -109 -34 -61 -151 -265 -176 -307
-15 -26 -56 -96 -188 -325 -11 -18 -27 -48 -38 -65 -10 -18 -93 -163 -186
-323 -92 -159 -178 -309 -191 -332 -13 -23 -21 -44 -16 -47 4 -2 18 -24 30
-48 13 -24 27 -50 32 -58 26 -41 100 -170 119 -205 12 -22 31 -56 42 -75 12
-19 46 -78 76 -130 29 -52 58 -102 63 -110 34 -59 228 -394 248 -430 14 -25
33 -57 43 -72 11 -14 19 -29 19 -32 0 -4 20 -39 44 -79 23 -39 74 -126 111
-192 38 -66 388 -673 778 -1350 391 -676 752 -1302 802 -1390 51 -88 147 -254
214 -369 66 -115 121 -210 121 -212 0 -1 26 -46 58 -101 32 -54 70 -118 84
-143 14 -25 59 -103 100 -175 248 -428 313 -541 423 -730 68 -115 133 -229
146 -251 47 -82 300 -519 309 -534 9 -14 26 -44 92 -161 100 -175 141 -245
148 -254 4 -5 19 -30 32 -55 14 -25 67 -117 118 -205 51 -88 102 -176 113
-196 l19 -36 899 0 c494 0 897 3 895 6 -7 11 -859 1486 -879 1521 -10 19 -146
253 -300 520 -154 267 -288 499 -297 515 -9 17 -117 203 -240 415 -122 212
-232 401 -242 420 -47 81 -337 584 -398 690 -37 63 -179 309 -315 545 -137
237 -304 527 -373 645 -68 118 -135 234 -149 258 -13 23 -157 273 -320 555
-434 751 -515 892 -633 1097 -59 102 -334 579 -612 1060 -278 481 -509 883
-515 894 -9 16 -14 11 -46 -40z"/>
<path d="M3600 6872 c0 -8 -33 -65 -319 -562 -85 -146 -165 -285 -179 -310
-14 -25 -35 -61 -47 -80 -12 -19 -33 -55 -47 -80 -36 -65 -218 -380 -239 -415
-11 -16 -22 -36 -26 -44 -3 -8 -35 -64 -71 -125 -36 -61 -74 -127 -85 -146
-23 -41 -182 -316 -254 -440 -27 -47 -52 -92 -56 -100 -4 -8 -17 -32 -29 -52
-25 -39 -118 -200 -151 -258 -10 -19 -43 -75 -72 -125 -29 -49 -121 -209 -205
-355 -84 -146 -236 -409 -338 -585 -101 -176 -237 -410 -300 -520 -63 -110
-144 -249 -179 -308 -34 -60 -63 -113 -63 -118 0 -5 -4 -9 -10 -9 -5 0 -10 -5
-10 -10 0 -9 -115 -211 -316 -555 -28 -49 -119 -207 -202 -350 -82 -143 -159
-276 -171 -295 -11 -19 -24 -42 -28 -50 -4 -8 -26 -48 -50 -87 l-43 -73 3501
0 c3104 0 3500 2 3495 15 -3 8 -31 59 -62 112 -72 124 -89 154 -115 200 -12
21 -54 94 -94 163 -40 69 -82 141 -93 160 -11 19 -36 64 -57 100 -21 36 -49
85 -63 110 -14 25 -36 62 -49 82 -12 21 -23 39 -23 41 0 3 -24 44 -53 93 l-53
89 -1927 0 c-1060 0 -1927 2 -1927 5 0 7 29 58 217 385 88 154 170 296 181
315 11 19 78 136 150 260 71 124 211 365 309 535 99 171 272 470 385 665 456
786 678 1174 678 1182 0 8 -43 84 -375 658 -103 179 -198 343 -211 365 -12 22
-59 102 -103 179 -45 76 -81 140 -81 141 0 1 -25 44 -55 94 -30 51 -55 96 -55
101 0 6 -7 10 -15 10 -8 0 -15 -4 -15 -8z"/>
</g>
</svg>
