<svg width="584" height="679" viewBox="0 0 584 679" fill="none" xmlns="http://www.w3.org/2000/svg">
<path d="M542.605 409.366L578.145 442.242" stroke="#D74590" stroke-width="1.06348" stroke-linecap="round"/>
<path d="M459.358 68.2554C462.057 64.3794 460.8 60.6271 459.746 57.9745C458.691 55.3218 458.939 53.5763 460.288 51.6383C461.638 49.7003 463.39 49.9614 466.043 48.9305C468.896 48.9992 472.851 48.8754 475.55 44.9994C478.249 41.1233 476.992 37.3712 475.938 34.7185C474.883 32.0658 475.131 30.3202 476.481 28.3822C477.83 26.4442 479.582 26.7053 482.235 25.6744C485.089 25.7431 489.044 25.6194 491.742 21.7434C494.441 17.8674 493.185 14.1151 492.13 11.4624C491.075 8.80973 491.323 7.06421 492.673 5.12621C493.572 3.83421 493.37 2.73461 492.068 1.82749C490.765 0.920371 489.663 1.11282 488.764 2.40482C486.065 6.28083 487.322 10.033 488.376 12.6857C489.431 15.3384 489.183 17.084 487.834 19.0221C486.484 20.9601 484.732 20.6989 482.079 21.7298C479.226 21.6611 475.271 21.7848 472.572 25.6608C469.873 29.5368 471.13 33.2891 472.184 35.9418C473.239 38.5944 472.991 40.34 471.642 42.278C470.292 44.216 468.54 43.9549 465.887 44.9857C463.034 44.9171 459.078 45.0409 456.38 48.9169C453.681 52.7929 454.937 56.5452 455.992 59.1978C457.047 61.8505 456.799 63.5961 455.45 65.5341C454.55 66.8261 454.752 67.9257 456.054 68.8328C457.357 69.7399 458.458 69.5474 459.358 68.2554Z" fill="#D74590"/>
<circle cx="141.508" cy="125.309" r="4.12449" transform="rotate(168.509 141.508 125.309)" stroke="#5FFFCA" stroke-width="1.06348" stroke-linecap="round"/>
<path d="M528.625 284.304L445.207 280.267" stroke="#5FFFCA" stroke-width="0.950417" stroke-linecap="round"/>
<path d="M461.626 272.66L572.821 270.568L582.061 278.042L463.392 276.132L461.626 272.66Z" fill="#5FFFCA"/>
<path d="M84.8031 258.206C88.4566 258.092 90.36 260.492 91.6352 262.296C92.9105 264.1 94.1475 264.676 95.9742 264.619C97.801 264.562 98.3716 263.315 100.16 262.03C101.32 260.15 103.071 257.637 106.724 257.523C110.378 257.409 112.281 259.808 113.556 261.612C114.831 263.416 116.068 263.992 117.895 263.935C119.722 263.878 120.293 262.631 122.081 261.346C123.241 259.466 124.992 256.953 128.645 256.839C132.298 256.725 134.202 259.124 135.477 260.928C136.752 262.733 137.989 263.309 139.816 263.252C141.034 263.214 141.662 263.809 141.7 265.037C141.739 266.265 141.149 266.898 139.931 266.936C136.278 267.05 134.374 264.651 133.099 262.847C131.824 261.042 130.587 260.466 128.76 260.523C126.933 260.58 126.363 261.827 124.574 263.112C123.414 264.992 121.664 267.506 118.01 267.62C114.357 267.733 112.453 265.334 111.178 263.53C109.903 261.726 108.666 261.15 106.839 261.207C105.012 261.264 104.442 262.511 102.653 263.796C101.493 265.676 99.7426 268.189 96.0891 268.303C92.4356 268.417 90.5323 266.018 89.257 264.214C87.9817 262.41 86.7447 261.834 84.918 261.891C83.7001 261.929 83.0721 261.334 83.0338 260.105C82.9955 258.877 83.5853 258.244 84.8031 258.206Z" fill="#FFDA00"/>
<path d="M518.002 210.732C520.919 209.828 522.984 211.337 524.412 212.507C525.84 213.676 526.964 213.865 528.422 213.413C529.881 212.961 530.063 211.83 531.218 210.398C531.735 208.626 532.586 206.214 535.502 205.31C538.419 204.407 540.485 205.916 541.913 207.085C543.34 208.255 544.465 208.444 545.923 207.992C547.381 207.54 547.564 206.409 548.718 204.977C549.235 203.205 550.086 200.793 553.003 199.889C555.919 198.985 557.985 200.494 559.413 201.664C560.841 202.833 561.965 203.022 563.423 202.571C564.396 202.269 565.034 202.609 565.337 203.589C565.641 204.57 565.307 205.211 564.335 205.512C561.418 206.415 559.352 204.906 557.924 203.737C556.496 202.567 555.372 202.378 553.914 202.83C552.456 203.282 552.273 204.413 551.118 205.845C550.602 207.617 549.751 210.03 546.834 210.933C543.917 211.837 541.852 210.328 540.424 209.158C538.996 207.989 537.872 207.8 536.413 208.251C534.955 208.703 534.773 209.834 533.618 211.267C533.101 213.038 532.25 215.451 529.334 216.355C526.417 217.258 524.351 215.749 522.923 214.58C521.495 213.41 520.371 213.221 518.913 213.673C517.941 213.974 517.303 213.634 516.999 212.654C516.695 211.674 517.03 211.033 518.002 210.732Z" fill="#FFDA00"/>
<circle cx="116.04" cy="234.402" r="6.11825" stroke="#D74590" stroke-width="1.06348" stroke-linecap="round"/>
<path d="M237.52 464.788C259.471 499.458 302.197 501.566 319.952 469.861C332.401 277.938 186.201 267.325 146.887 287.617C107.574 307.908 100.048 370.801 136.88 406.08C173.712 441.359 215.568 430.118 237.52 464.788Z" fill="#FFDA00"/>
<path d="M116.99 405.391C122.197 411.473 135.358 418.591 134.382 426.14C133.407 433.688 114.876 429.091 105.442 417.722C96.0078 406.352 93.3008 391.633 100.505 389.391C107.709 387.148 111.783 399.31 116.99 405.391Z" fill="#FFDA00"/>
<path d="M1 162.376L150.553 221.931" stroke="#D74590" stroke-width="1.06348" stroke-linecap="round"/>
<path d="M190.746 557.226L149.083 629.608" stroke="#5FFFCA" stroke-width="1.06348" stroke-linecap="round"/>
<path d="M125.102 100.911L72.2846 36.2175" stroke="#5FFFCA" stroke-width="0.950417" stroke-linecap="round"/>
<path d="M175.172 569.5L115.216 656.353L116.279 670.221L177.344 573.507L175.172 569.5Z" fill="#5FFFCA"/>
<path d="M540.078 326.261C533.062 315.304 525.805 313.206 527.515 307.06C528.966 300.604 541.31 303.455 551.299 313.253C561.287 323.05 567.284 340.839 558.506 343.995C549.618 347.191 547.094 337.219 540.078 326.261Z" fill="#D74590"/>
<path d="M531.566 126.536C529.638 122.073 525.361 115.719 530.252 114.108C535.143 112.498 545.126 136.826 538.821 138.589C532.517 140.352 533.494 130.998 531.566 126.536Z" fill="#6308C0"/>
</svg>
